<svg width="15" height="15" viewBox="0 0 15 15" fill="none" xmlns="http://www.w3.org/2000/svg">
<path d="M4.63589 2.35075C4.89136 2.52888 4.95229 2.88044 4.77417 3.13356L3.46167 5.00856C3.36558 5.1445 3.21558 5.23122 3.04917 5.24528C2.88276 5.25935 2.7187 5.20309 2.60151 5.08591L1.66401 4.14841C1.44604 3.92809 1.44604 3.57184 1.66401 3.35153C1.88198 3.13122 2.24058 3.13356 2.46089 3.35153L2.92495 3.8156L3.85308 2.48903C4.0312 2.23356 4.38276 2.17263 4.63589 2.35075ZM4.63589 6.10075C4.89136 6.27888 4.95229 6.63044 4.77417 6.88356L3.46167 8.75856C3.36558 8.8945 3.21558 8.98122 3.04917 8.99528C2.88276 9.00935 2.7187 8.9531 2.60151 8.83591L1.66401 7.89841C1.4437 7.67809 1.4437 7.32185 1.66401 7.10388C1.88433 6.88591 2.24058 6.88356 2.45854 7.10388L2.92261 7.56794L3.85073 6.24138C4.02886 5.98591 4.38042 5.92497 4.63354 6.10309L4.63589 6.10075ZM6.74995 3.74997C6.74995 3.33513 7.08511 2.99997 7.49995 2.99997H12.75C13.1648 2.99997 13.5 3.33513 13.5 3.74997C13.5 4.16481 13.1648 4.49997 12.75 4.49997H7.49995C7.08511 4.49997 6.74995 4.16481 6.74995 3.74997ZM6.74995 7.49997C6.74995 7.08513 7.08511 6.74997 7.49995 6.74997H12.75C13.1648 6.74997 13.5 7.08513 13.5 7.49997C13.5 7.91481 13.1648 8.24997 12.75 8.24997H7.49995C7.08511 8.24997 6.74995 7.91481 6.74995 7.49997ZM5.24995 11.25C5.24995 10.8351 5.58511 10.5 5.99995 10.5H12.75C13.1648 10.5 13.5 10.8351 13.5 11.25C13.5 11.6648 13.1648 12 12.75 12H5.99995C5.58511 12 5.24995 11.6648 5.24995 11.25ZM2.99995 10.3125C3.51792 10.3125 3.93745 10.732 3.93745 11.25C3.93745 11.7679 3.51792 12.1875 2.99995 12.1875C2.48198 12.1875 2.06245 11.7679 2.06245 11.25C2.06245 10.732 2.48198 10.3125 2.99995 10.3125Z" fill="#A6A6A6"/>
</svg>
